<mxfile host="app.diagrams.net" modified="2024-01-29T07:58:12.342Z" agent="Mozilla/5.0 (X11; Linux x86_64) AppleWebKit/537.36 (KHTML, like Gecko) Chrome/120.0.0.0 Safari/537.36" etag="lPAz7d3_C5S6MDy5k7cB" version="22.1.16" type="github">
  <diagram name="第 1 页" id="BMI3TO_A13qGgQereJoH">
    <mxGraphModel dx="2074" dy="1081" grid="1" gridSize="10" guides="1" tooltips="1" connect="1" arrows="1" fold="1" page="1" pageScale="1" pageWidth="827" pageHeight="1169" math="0" shadow="0">
      <root>
        <mxCell id="0" />
        <mxCell id="1" parent="0" />
        <mxCell id="YRnL23W9Cz6jn8uFclqp-1" value="&lt;div style=&quot;color: rgb(59, 59, 59); background-color: rgb(255, 255, 255); font-family: &amp;quot;Droid Sans Mono&amp;quot;, &amp;quot;monospace&amp;quot;, monospace; line-height: 196%;&quot;&gt;&lt;font style=&quot;font-size: 20px;&quot;&gt;processMeasurements&lt;/font&gt;&lt;/div&gt;" style="rounded=0;whiteSpace=wrap;html=1;" vertex="1" parent="1">
          <mxGeometry x="240" y="180" width="260" height="90" as="geometry" />
        </mxCell>
        <mxCell id="YRnL23W9Cz6jn8uFclqp-2" value="&lt;div style=&quot;color: rgb(59, 59, 59); background-color: rgb(255, 255, 255); font-family: &amp;quot;Droid Sans Mono&amp;quot;, &amp;quot;monospace&amp;quot;, monospace; line-height: 196%;&quot;&gt;&lt;font style=&quot;font-size: 20px;&quot;&gt;processMeasurements&lt;/font&gt;&lt;/div&gt;" style="rounded=0;whiteSpace=wrap;html=1;" vertex="1" parent="1">
          <mxGeometry x="250" y="370" width="260" height="90" as="geometry" />
        </mxCell>
      </root>
    </mxGraphModel>
  </diagram>
</mxfile>
